<svg xmlns="http://www.w3.org/2000/svg" viewBox="0 0 512 512" width="512" height="512"><rect width="512" height="512" rx="112" fill="#1E3A8A"/><g transform="translate(63.17 79.11) scale(1.9880)"><path fill="#FFC20E" d="M14 12C30 20 45 22 70 22L140 22C165 22 182 45 180 82C172 72 160 66 140 66L52 66C30 62 18 40 14 12Z"/>
<path fill="#FFC20E" d="M44 77L120 77A42 42 0 0 0 107 125L92 125C64 124 46 104 44 77Z"/>
<path fill="#FFC20E" fill-rule="evenodd" d="M146 172C136 156 112 138 112 108A34 34 0 0 1 180 108C180 138 156 156 146 172ZM146 93A14 14 0 1 0 146.01 93Z"/></g></svg>
